{
  "accessors": [
    {
      "bufferView": 2,
      "componentType": 5126,
      "count": 65532,
      "max": [
        1.9495869874954224,
        1.0766149759292603,
        -3.9811310768127441
      ],
      "min": [
        0.040646001696586609,
        -2.4754989147186279,
        -6.9361929893493652
      ],
      "type": "VEC3"
    },
    {
      "bufferView": 2,
      "byteOffset": 786384,
      "componentType": 5126,
      "count": 65532,
      "max": [
        0.99920862913131714,
        0.99993085861206055,
        0.99998384714126587
      ],
      "min": [
        -0.99996429681777954,
        -0.99999934434890747,
        -0.99996840953826904
      ],
      "type": "VEC3"
    },
    {
      "bufferView": 1,
      "componentType": 5126,
      "count": 65532,
      "max": [
        0.99967998266220093,
        0.99941802024841309
      ],
      "min": [
        0.0001049999991664663,
        6.0999998822808266e-05
      ],
      "type": "VEC2"
    },
    {
      "bufferView": 0,
      "componentType": 5125,
      "count": 65532,
      "max": [
        65531
      ],
      "min": [
        0
      ],
      "type": "SCALAR"
    },
    {
      "bufferView": 2,
      "byteOffset": 1572768,
      "componentType": 5126,
      "count": 65532,
      "max": [
        1.7561719417572021,
        0.17071400582790375,
        -4.3013930320739746
      ],
      "min": [
        -1.4939310550689697,
        -2.4831249713897705,
        -7.1326661109924316
      ],
      "type": "VEC3"
    },
    {
      "bufferView": 2,
      "byteOffset": 2359152,
      "componentType": 5126,
      "count": 65532,
      "max": [
        0.99984550476074219,
        0.99993443489074707,
        0.99927198886871338
      ],
      "min": [
        -0.99992489814758301,
        -0.99995851516723633,
        -0.99997717142105103
      ],
      "type": "VEC3"
    },
    {
      "bufferView": 1,
      "byteOffset": 524256,
      "componentType": 5126,
      "count": 65532,
      "max": [
        0.9997289776802063,
        0.99973398447036743
      ],
      "min": [
        9.9999997473787516e-06,
        3.0999999580672011e-05
      ],
      "type": "VEC2"
    },
    {
      "bufferView": 0,
      "byteOffset": 262128,
      "componentType": 5125,
      "count": 65532,
      "max": [
        65531
      ],
      "min": [
        0
      ],
      "type": "SCALAR"
    },
    {
      "bufferView": 2,
      "byteOffset": 3145536,
      "componentType": 5126,
      "count": 65532,
      "max": [
        1.9368150234222412,
        1.0917949676513672,
        -3.9428410530090332
      ],
      "min": [
        -1.4820020198822021,
        -2.4700279235839844,
        -7.1326661109924316
      ],
      "type": "VEC3"
    },
    {
      "bufferView": 2,
      "byteOffset": 3931920,
      "componentType": 5126,
      "count": 65532,
      "max": [
        0.99965870380401611,
        0.99992942810058594,
        0.99994796514511108
      ],
      "min": [
        -0.9998815655708313,
        -0.99987947940826416,
        -0.99969619512557983
      ],
      "type": "VEC3"
    },
    {
      "bufferView": 1,
      "byteOffset": 1048512,
      "componentType": 5126,
      "count": 65532,
      "max": [
        0.99971401691436768,
        0.9997439980506897
      ],
      "min": [
        9.2000002041459084e-05,
        9.3000002379994839e-05
      ],
      "type": "VEC2"
    },
    {
      "bufferView": 0,
      "byteOffset": 524256,
      "componentType": 5125,
      "count": 65532,
      "max": [
        65531
      ],
      "min": [
        0
      ],
      "type": "SCALAR"
    },
    {
      "bufferView": 2,
      "byteOffset": 4718304,
      "componentType": 5126,
      "count": 16926,
      "max": [
        1.0274029970169067,
        -0.84009397029876709,
        -3.9525051116943359
      ],
      "min": [
        -1.4931459426879883,
        -2.4783430099487305,
        -5.9174699783325195
      ],
      "type": "VEC3"
    },
    {
      "bufferView": 2,
      "byteOffset": 4921416,
      "componentType": 5126,
      "count": 16926,
      "max": [
        0.9989127516746521,
        0.99983179569244385,
        0.99954622983932495
      ],
      "min": [
        -0.99976992607116699,
        -0.99998903274536133,
        -0.99974119663238525
      ],
      "type": "VEC3"
    },
    {
      "bufferView": 1,
      "byteOffset": 1572768,
      "componentType": 5126,
      "count": 16926,
      "max": [
        0.99970102310180664,
        0.99892199039459229
      ],
      "min": [
        0.00056199997197836637,
        0.0034930000547319651
      ],
      "type": "VEC2"
    },
    {
      "bufferView": 0,
      "byteOffset": 786384,
      "componentType": 5125,
      "count": 16926,
      "max": [
        16925
      ],
      "min": [
        0
      ],
      "type": "SCALAR"
    }
  ],
  "asset": {
    "extras": {
      "author": "colinethille (https://sketchfab.com/colinethille)",
      "license": "CC-BY-4.0 (http://creativecommons.org/licenses/by/4.0/)",
      "source": "https://sketchfab.com/3d-models/teddy-bear-459ce5b99da947438d3ea11d7c0d4225",
      "title": "teddy_bear"
    },
    "generator": "Sketchfab-8.74.0",
    "version": "2.0"
  },
  "bufferViews": [
    {
      "buffer": 0,
      "byteLength": 854088,
      "byteOffset": 0,
      "name": "floatBufferViews",
      "target": 34963
    },
    {
      "buffer": 0,
      "byteLength": 1708176,
      "byteOffset": 854088,
      "byteStride": 8,
      "name": "floatBufferViews",
      "target": 34962
    },
    {
      "buffer": 0,
      "byteLength": 5124528,
      "byteOffset": 2562264,
      "byteStride": 12,
      "name": "floatBufferViews",
      "target": 34962
    }
  ],
  "buffers": [
    {
      "byteLength": 7686792,
      "uri": "scene.bin"
    }
  ],
  "extensionsUsed": [
    "KHR_materials_unlit"
  ],
  "images": [
    {
      "uri": "textures/teddy_baseColor.jpeg"
    }
  ],
  "materials": [
    {
      "doubleSided": true,
      "emissiveFactor": [
        0,
        0,
        0
      ],
      "extensions": {
        "KHR_materials_unlit": {}
      },
      "name": "teddy",
      "pbrMetallicRoughness": {
        "baseColorFactor": [
          1,
          1,
          1,
          1
        ],
        "baseColorTexture": {
          "index": 0,
          "texCoord": 0
        },
        "metallicFactor": 0,
        "roughnessFactor": 1
      }
    }
  ],
  "meshes": [
    {
      "name": "teddy_teddy_0",
      "primitives": [
        {
          "attributes": {
            "NORMAL": 1,
            "POSITION": 0,
            "TEXCOORD_0": 2
          },
          "indices": 3,
          "material": 0,
          "mode": 4
        }
      ]
    },
    {
      "name": "teddy_teddy_0",
      "primitives": [
        {
          "attributes": {
            "NORMAL": 5,
            "POSITION": 4,
            "TEXCOORD_0": 6
          },
          "indices": 7,
          "material": 0,
          "mode": 4
        }
      ]
    },
    {
      "name": "teddy_teddy_0",
      "primitives": [
        {
          "attributes": {
            "NORMAL": 9,
            "POSITION": 8,
            "TEXCOORD_0": 10
          },
          "indices": 11,
          "material": 0,
          "mode": 4
        }
      ]
    },
    {
      "name": "teddy_teddy_0",
      "primitives": [
        {
          "attributes": {
            "NORMAL": 13,
            "POSITION": 12,
            "TEXCOORD_0": 14
          },
          "indices": 15,
          "material": 0,
          "mode": 4
        }
      ]
    }
  ],
  "nodes": [
    {
      "children": [
        1
      ],
      "name": "RootNode (gltf orientation matrix)",
      "rotation": [
        -0.70710678118654746,
        -0,
        -0,
        0.70710678118654757
      ]
    },
    {
      "children": [
        2
      ],
      "matrix": [
        1,
        1.6081226229577292e-16,
        -1.6081226229577292e-16,
        0,
        -1.6081226229577292e-16,
        1,
        1.6081226229577292e-16,
        0,
        1.6081226229577292e-16,
        -1.6081226229577292e-16,
        1,
        0,
        5.6150388717651367,
        -22.524068832397461,
        12.704819679260254,
        1
      ],
      "name": "RootNode (model correction matrix)"
    },
    {
      "children": [
        3
      ],
      "matrix": [
        1,
        0,
        0,
        0,
        0,
        0,
        1,
        0,
        0,
        -1,
        0,
        0,
        0,
        0,
        0,
        1
      ],
      "name": "teddy.fbx"
    },
    {
      "children": [
        4,
        7
      ],
      "name": "RootNode"
    },
    {
      "children": [
        5
      ],
      "matrix": [
        -29.08647719990347,
        -5.5189064575668629,
        -95.517119101714371,
        0,
        56.639309131094492,
        79.467234285632031,
        -21.839123978419661,
        0,
        77.110087759933748,
        -60.452463565620441,
        -19.988346967737169,
        0,
        407.62454223632812,
        590.38623046875,
        -100.54539489746094,
        1
      ],
      "name": "Light"
    },
    {
      "children": [
        6
      ],
      "matrix": [
        1,
        0,
        0,
        0,
        0,
        2.2204460492503131e-16,
        1,
        0,
        0,
        -1,
        2.2204460492503131e-16,
        0,
        0,
        0,
        0,
        1
      ],
      "name": ""
    },
    {
      "name": ""
    },
    {
      "children": [
        8,
        9,
        10,
        11
      ],
      "matrix": [
        9.4810052068654489,
        -97.227595445400993,
        21.375305805858876,
        0,
        95.703980109756941,
        2.991815013850041,
        -28.84089516769809,
        0,
        27.401803449308723,
        23.191428728125878,
        93.334346985194443,
        0,
        272.724365234375,
        299.95831298828125,
        380.5076904296875,
        1
      ],
      "name": "teddy"
    },
    {
      "mesh": 0,
      "name": "teddy_teddy_0"
    },
    {
      "mesh": 1,
      "name": "teddy_teddy_0"
    },
    {
      "mesh": 2,
      "name": "teddy_teddy_0"
    },
    {
      "mesh": 3,
      "name": "teddy_teddy_0"
    }
  ],
  "samplers": [
    {
      "magFilter": 9729,
      "minFilter": 9987,
      "wrapS": 10497,
      "wrapT": 10497
    }
  ],
  "scene": 0,
  "scenes": [
    {
      "name": "OSG_Scene",
      "nodes": [
        0
      ]
    }
  ],
  "textures": [
    {
      "sampler": 0,
      "source": 0
    }
  ]
}

